<svg width="89" height="89" viewBox="0 0 89 89" fill="none" xmlns="http://www.w3.org/2000/svg">
<path d="M0.465454 76.0824L3.38162 76.3873C4.10195 69.4923 5.69688 62.717 8.12797 56.2247L5.38242 55.1955C2.86392 61.921 1.21166 68.9397 0.465454 76.0824Z" fill="#66a038"/>
<path d="M0 85.0312V87.9633H2.93211V85.0312C2.93211 83.1125 2.99918 81.1736 3.13113 79.2685L0.206164 79.0654C0.0692711 81.038 0 83.0452 0 85.0312Z" fill="#66a038"/>
<path d="M17.5925 85.6484V87.9633H20.5246V85.6484C20.5216 80.1237 21.2259 74.6213 22.6205 69.2755L19.7837 68.5337C18.3259 74.1217 17.5895 79.8734 17.5925 85.6484Z" fill="#66a038"/>
<path d="M29.7385 65.5427L31.8115 63.4697L34.7431 66.4013L32.6701 68.4743L29.7385 65.5427Z" fill="#66a038"/>
<path d="M23.8759 59.6782L25.9489 57.6052L28.8805 60.5368L26.8075 62.6098L23.8759 59.6782Z" fill="#66a038"/>
<path d="M18.0127 53.8136L20.0857 51.7406L23.0173 54.6722L20.9443 56.7452L18.0127 53.8136Z" fill="#66a038"/>
<path d="M12.1496 47.949L14.2226 45.876L17.1542 48.8076L15.0812 50.8806L12.1496 47.949Z" fill="#66a038"/>
<path d="M6.28693 42.0844L8.35993 40.0114L11.2915 42.943L9.21854 45.016L6.28693 42.0844Z" fill="#66a038"/>
<path d="M86.9266 71.4073L89 69.334L85.6385 65.9725L87.534 64.0771C87.6701 63.9409 87.7781 63.7793 87.8518 63.6014C87.9254 63.4236 87.9634 63.2329 87.9634 63.0404C87.9634 62.8478 87.9254 62.6572 87.8518 62.4793C87.7781 62.3015 87.6701 62.1398 87.534 62.0037L79.0125 53.4822L76.9391 55.5556L80.0257 58.6422L62.0037 76.6642L64.0771 78.7376L82.0991 60.7156L84.4241 63.0404L63.0404 84.4241L20.0954 41.4791C19.8433 41.2309 19.6429 40.9352 19.5056 40.6092C19.3683 40.2831 19.2969 39.9331 19.2955 39.5794C19.2942 39.2256 19.3628 38.875 19.4976 38.5479C19.6323 38.2208 19.8305 37.9236 20.0806 37.6735C20.3308 37.4233 20.628 37.2251 20.9551 37.0904C21.2822 36.9556 21.6327 36.8869 21.9865 36.8883C22.3403 36.8896 22.6903 36.961 23.0163 37.0983C23.3424 37.2355 23.638 37.436 23.8863 37.6881L37.0808 50.8826C37.2169 51.0187 37.3785 51.1267 37.5564 51.2004C37.7343 51.2741 37.9249 51.312 38.1174 51.312C38.31 51.312 38.5006 51.2741 38.6785 51.2004C38.8564 51.1267 39.018 51.0187 39.1541 50.8826C39.2903 50.7464 39.3983 50.5848 39.4719 50.4069C39.5456 50.2291 39.5835 50.0384 39.5835 49.8459C39.5835 49.6534 39.5456 49.4627 39.4719 49.2848C39.3983 49.107 39.2903 48.9453 39.1541 48.8092L25.9596 35.6147C25.7075 35.3665 25.5071 35.0708 25.3698 34.7448C25.2325 34.4187 25.1611 34.0687 25.1598 33.715C25.1584 33.3612 25.2271 33.0106 25.3618 32.6835C25.4965 32.3564 25.6947 32.0592 25.9448 31.8091C26.195 31.5589 26.4922 31.3607 26.8193 31.226C27.1464 31.0912 27.4969 31.0225 27.8507 31.0239C28.2045 31.0252 28.5545 31.0966 28.8805 31.2339C29.2066 31.3711 29.5023 31.5716 29.7505 31.8237L42.945 45.0182C43.2199 45.293 43.5927 45.4474 43.9815 45.4474C44.3702 45.4474 44.743 45.293 45.018 45.0182C45.2836 44.7383 45.4317 44.3671 45.4317 43.9813C45.4317 43.5954 45.2836 43.2243 45.018 42.9444L31.8235 29.7499C31.5714 29.5017 31.3709 29.2061 31.2337 28.88C31.0964 28.554 31.025 28.204 31.0236 27.8502C31.0222 27.4964 31.0909 27.1459 31.2257 26.8188C31.3604 26.4917 31.5586 26.1945 31.8087 25.9443C32.0589 25.6941 32.356 25.496 32.6831 25.3612C33.0102 25.2264 33.3608 25.1578 33.7146 25.1591C34.0683 25.1605 34.4183 25.2318 34.7444 25.3691C35.0704 25.5064 35.3661 25.7068 35.6143 25.9589L48.8088 39.1534C49.0838 39.4282 49.4566 39.5826 49.8453 39.5826C50.2341 39.5826 50.6069 39.4282 50.8818 39.1534C51.1485 38.8741 51.2974 38.5027 51.2974 38.1165C51.2974 37.7303 51.1485 37.359 50.8818 37.0797L37.6873 23.8852C37.4352 23.6369 37.2348 23.3413 37.0975 23.0152C36.9602 22.6892 36.8888 22.3392 36.8875 21.9854C36.8861 21.6316 36.9548 21.2811 37.0895 20.954C37.2243 20.6269 37.4224 20.3297 37.6726 20.0795C37.9227 19.8294 38.2199 19.6312 38.547 19.4964C38.8741 19.3617 39.2246 19.293 39.5784 19.2943C39.9322 19.2957 40.2822 19.3671 40.6082 19.5043C40.9343 19.6416 41.23 19.842 41.4782 20.0941L59.1405 37.7564C59.3385 37.9467 59.5855 38.0781 59.8538 38.1361C60.1222 38.1941 60.4015 38.1762 60.6603 38.0846C60.9191 37.993 61.1474 37.8312 61.3196 37.6174C61.4918 37.4035 61.6011 37.1459 61.6353 36.8735L62.6579 27.1583C62.7235 26.533 63.0225 25.9554 63.4952 25.5408C63.9679 25.1262 64.5795 24.9051 65.2081 24.9216C65.8366 24.938 66.4358 25.1909 66.8861 25.6297C67.3364 26.0685 67.6048 26.6609 67.6376 27.2888L68.6616 46.7452C68.6805 47.1069 68.8327 47.4487 69.089 47.7047L74.9226 53.5385L76.9959 51.4651L71.5607 46.0305L71.4291 43.5305L76.2349 38.7253C77.1579 37.7759 77.6825 36.5093 77.7009 35.1853C77.7028 34.5276 77.5742 33.8761 77.3225 33.2685C77.0709 32.6608 76.7012 32.1091 76.2349 31.6454L70.2962 25.7067C70.0293 24.9061 69.5797 24.1785 68.9828 23.5818C68.386 22.985 67.6585 22.5353 66.8578 22.2685L47.0908 2.50182C45.4882 0.900143 43.3153 0.000279165 41.0495 0C38.785 0.00649612 36.6143 0.905414 35.0081 2.50182L9.92831 27.582L12.0015 29.6554L37.0813 4.57538C38.1363 3.52678 39.5621 2.93634 41.0495 2.93211C42.5377 2.93242 43.9649 3.52345 45.0176 4.57538L62.9103 22.4673C62.076 22.8429 61.3504 23.4236 60.801 24.1551L42.0617 6.26922L40.0374 8.39078L59.7095 27.1677L59.0417 33.5115L43.5523 18.0222C42.7522 17.2214 41.7285 16.6813 40.6158 16.473C39.5031 16.2647 38.3534 16.3979 37.3178 16.8551C36.2822 17.3122 35.4091 18.072 34.8133 19.0345C34.2174 19.997 33.9267 21.1173 33.9793 22.2481C33.8929 22.2443 33.8063 22.2424 33.7193 22.2423C32.9607 22.2421 32.2099 22.3958 31.5124 22.6941C30.8149 22.9924 30.1852 23.4291 29.6613 23.9778C29.1374 24.5264 28.7303 25.1757 28.4645 25.8862C28.1987 26.5968 28.0799 27.3538 28.1151 28.1116C28.0287 28.1078 27.942 28.1059 27.8551 28.1057C27.0964 28.1056 26.3456 28.2593 25.648 28.5577C24.9505 28.856 24.3207 29.2928 23.7968 29.8415C23.2729 30.3903 22.8658 31.0396 22.6001 31.7502C22.3343 32.4608 22.2155 33.218 22.2509 33.9758C22.1645 33.972 22.0778 33.9701 21.9908 33.97C20.8808 33.9701 19.7957 34.2993 18.8727 34.9161C17.9498 35.5328 17.2304 36.4094 16.8057 37.435C16.3809 38.4605 16.2697 39.589 16.4862 40.6777C16.7027 41.7665 17.2372 42.7666 18.022 43.5516L42.6413 68.1716L39.5835 71.2294L37.6881 69.334L35.6147 71.4073L37.5101 73.3028L36.6514 74.161C36.2582 74.542 35.7322 74.7551 35.1847 74.7551C34.6372 74.7551 34.1111 74.542 33.718 74.161L4.57519 45.0174C3.79052 44.2324 3.25621 43.2324 3.03982 42.1438C2.82343 41.0552 2.93466 39.9268 3.35947 38.9014C3.64051 38.2204 4.05378 37.6019 4.57538 37.0817L9.92464 31.7322L7.85128 29.6588L2.50219 35.0081C1.70884 35.8015 1.07953 36.7434 0.6502 37.78C0.220872 38.8166 -6.68398e-05 39.9276 1.5168e-08 41.0495C0.00632703 43.3142 0.905345 45.485 2.50201 47.091L31.6452 76.2349C32.594 77.1588 33.8611 77.6835 35.1853 77.7009C35.843 77.7027 36.4945 77.5741 37.1021 77.3224C37.7098 77.0708 38.2615 76.7011 38.7253 76.2349L44.7147 70.2449L62.0037 87.534C62.1398 87.6701 62.3015 87.7781 62.4793 87.8518C62.6572 87.9254 62.8478 87.9634 63.0404 87.9634C63.2329 87.9634 63.4236 87.9254 63.6014 87.8518C63.7793 87.7781 63.9409 87.6701 64.0771 87.534L65.9725 85.6385L69.334 89L71.4073 86.9266L68.0459 83.5651L83.5651 68.0457L86.9266 71.4073ZM71.1423 38.0817L71.9551 38.8578L71.2221 39.5908L71.1423 38.0817ZM74.7377 35.1853C74.7425 35.4556 74.6941 35.7242 74.5951 35.9757C74.4962 36.2273 74.3486 36.4569 74.161 36.6514L74.029 36.7833L70.9177 33.8124L70.7322 30.2894L74.161 33.7193C74.5373 34.1138 74.7443 34.6401 74.7377 35.1853Z" fill="#66a038"/>
<path d="M56.2245 8.12763L55.1954 5.38189C64.4379 1.91833 74.4711 0.107572 85.016 0L85.0461 2.93211C74.8433 3.03602 65.1464 4.78392 56.2245 8.12763Z" fill="#66a038"/>
<path d="M70.6951 22.7405L70.046 19.8817C74.7442 18.8157 79.6404 18.2691 85.0152 18.2106L85.0471 21.1427C79.8825 21.1981 75.188 21.7209 70.6951 22.7405Z" fill="#66a038"/>
</svg>
