<?xml version="1.0" ?><svg id="Layer_1" style="enable-background:new 0 0 512 512;" version="1.1" viewBox="0 0 512 512" xml:space="preserve" xmlns="http://www.w3.org/2000/svg" xmlns:xlink="http://www.w3.org/1999/xlink"><style type="text/css">
	.st0{fill:#439DFF;}
	.st1{fill:#F4F4F4;}
	.st2{fill:#73BFF9;}
	.st3{fill:#FCD383;}
	.st4{fill:#FFB000;}
	.st5{fill:#FFFFFF;}
</style><g><g><circle class="st0" cx="242.6" cy="239.5" r="168.8"/><circle class="st1" cx="242.6" cy="239.5" r="137.9"/><path class="st2" d="M163.2,225.5h65.3v-94.6c0-7.6,6.4-14,14-14c7.6,0,14,6.4,14,14v106.6c0,0.4,0,0.8,0,1.2c0,0.4,0,0.8,0,1.2    c0,7.6-6.4,14-14,14h-79.4c-7.6,0-14-6.4-14-14C149.2,231.9,155.6,225.5,163.2,225.5z"/><circle class="st3" cx="242.6" cy="239.5" r="26.9"/></g><g><ellipse class="st4" cx="346.4" cy="349.5" rx="91.7" ry="91.7" transform="matrix(0.7071 -0.7071 0.7071 0.7071 -145.6972 347.3288)"/><ellipse class="st3" cx="346.4" cy="349.5" rx="63.3" ry="63.3"/><path class="st5" d="M366.4,354.1c-1.2-2.4-3-4.5-5.8-6.7c-2.4-1.8-5.8-3.3-9.7-4.5c-3.3-1.2-5.8-1.8-7.9-2.7    c-2.1-0.6-3.3-1.8-4.5-3c-0.9-1.2-1.5-2.7-1.8-4.5c0-1.8,0.6-3.6,2.4-4.8c1.5-1.2,3.6-1.8,5.8-1.8c2.4,0,3.9,0.6,5.4,1.5    c1.2,1.2,2.4,2.4,3.3,4.2c1.2,1.8,2.1,3.6,3,4.2c0.9,0.9,1.8,1.5,3.3,1.5c1.8,0,3-0.9,4.2-1.8c1.2-1.2,1.5-3,1.2-4.8    c0-1.8-0.3-3.6-1.2-5.4c-1.2-1.8-2.4-3.6-3.9-5.1c-1.8-1.5-3.9-2.7-6.7-3.9c-0.6,0-1.2-0.3-1.8-0.6v-2.7c0-3.6-3-6.7-6.7-6.7h-0.9    c-3.6,0-6.7,3-6.7,6.7v3c-1.2,0.3-2.4,0.9-3.6,1.8c-3,1.8-5.1,4.2-6.7,7.3s-2.4,6.4-2.4,9.7c0,3.9,0.9,7,2.4,9.7    c1.5,2.7,3.6,4.8,6.4,6.7c2.7,1.8,6.4,3.3,10.6,4.5c3.9,1.2,6.7,2.4,8.2,3.9s2.4,3.6,2.4,6.7c0,1.8-0.9,3.6-2.4,5.4    c-1.5,1.5-3.9,2.4-6.4,2.4c-3,0-5.4-0.9-7.6-2.4c-1.8-1.5-3.3-3.9-4.5-6.7c-0.9-1.5-1.5-2.7-2.1-3.9c-0.9-0.9-1.8-1.2-3-1.2    c-1.5,0-2.7,0.6-3.9,1.8c-1.2,1.5-1.5,3-1.5,4.8c0,2.7,0.9,5.8,2.4,8.5c1.5,2.7,3.9,5.1,7,7.3c1.2,0.6,2.4,1.2,3.6,1.8v2.4    c0,3.6,3,6.7,6.7,6.7h0.9c3.6,0,6.7-3,6.7-6.7V385c2.4-0.3,4.2-1.2,6.1-2.1c3.3-1.5,5.8-4.2,7.6-7.9c1.8-3.3,2.4-7.6,2.7-12.1    C368.2,359.2,367.6,356.5,366.4,354.1z"/></g></g></svg>