<svg width="80" height="78" viewBox="0 0 80 78" fill="none" xmlns="http://www.w3.org/2000/svg">
<path d="M2.03125 74.6252V75.969C2.03125 76.3254 2.17282 76.6672 2.42483 76.9192C2.67683 77.1712 3.01862 77.3127 3.375 77.3127C3.73138 77.3127 4.07317 77.1712 4.32517 76.9192C4.57718 76.6672 4.71875 76.3254 4.71875 75.969V74.6252H6.0625V75.969C6.0625 76.3254 6.20407 76.6672 6.45608 76.9192C6.70808 77.1712 7.04987 77.3127 7.40625 77.3127C7.76263 77.3127 8.10442 77.1712 8.35642 76.9192C8.60843 76.6672 8.75 76.3254 8.75 75.969V74.6252H10.0938V75.969C10.0938 76.3254 10.2353 76.6672 10.4873 76.9192C10.7393 77.1712 11.0811 77.3127 11.4375 77.3127C11.7939 77.3127 12.1357 77.1712 12.3877 76.9192C12.6397 76.6672 12.7812 76.3254 12.7812 75.969V74.6252H14.125V75.969C14.1301 76.3142 14.2678 76.6443 14.5097 76.8907C14.7516 77.1371 15.079 77.2809 15.4241 77.2923C15.7692 77.3037 16.1055 77.1819 16.3631 76.9521C16.6208 76.7222 16.7801 76.402 16.808 76.0578C18.4697 76.8847 20.3008 77.3143 22.1569 77.3127H57.125C57.457 77.3127 57.7773 77.1898 58.0241 76.9676C58.2708 76.7455 58.4266 76.4398 58.4614 76.1096L59.9 62.4416C60.3553 62.3357 60.7832 62.1354 61.1562 61.8537V74.6252C61.1571 75.3378 61.4405 76.0208 61.9443 76.5247C62.4482 77.0285 63.1312 77.3119 63.8438 77.3127H75.9375C76.65 77.3119 77.3331 77.0285 77.8369 76.5247C78.3407 76.0208 78.6242 75.3378 78.625 74.6252V63.8752C78.6271 61.6363 77.9236 59.4535 76.6145 57.6372C75.3053 55.8208 73.4571 54.4632 71.3323 53.7571L70.5625 53.5005V49.7659L72.7169 48.15C73.717 49.634 75.0821 50.8357 76.6809 51.6396C76.8389 51.7201 77.0113 51.7686 77.1881 51.7822C77.3649 51.7958 77.5427 51.7743 77.7112 51.7189C77.8796 51.6635 78.0355 51.5753 78.1697 51.4593C78.3039 51.3434 78.4138 51.2021 78.4931 51.0434C78.5725 50.8848 78.6196 50.7121 78.6318 50.5351C78.6441 50.3582 78.6212 50.1806 78.5644 50.0126C78.5077 49.8446 78.4183 49.6894 78.3013 49.5561C78.1843 49.4228 78.0421 49.314 77.8829 49.2359C76.6569 48.619 75.6173 47.6867 74.8711 46.5348L75.0422 46.4065H78.625C78.9814 46.4065 79.3232 46.2649 79.5752 46.0129C79.8272 45.7609 79.9688 45.4191 79.9688 45.0627V41.0315C79.9688 40.6751 79.8272 40.3333 79.5752 40.0813C79.3232 39.8293 78.9814 39.6877 78.625 39.6877H61.1562C60.7999 39.6877 60.4581 39.8293 60.2061 40.0813C59.9541 40.3333 59.8125 40.6751 59.8125 41.0315V42.3752H57.125V39.0159C57.125 37.0558 56.3463 35.1759 54.9603 33.7899C53.5743 32.4039 51.6945 31.6252 49.7344 31.6252C47.7743 31.6252 45.8944 32.4039 44.5084 33.7899C43.1224 35.1759 42.3438 37.0558 42.3438 39.0159V43.719H39.6562V32.969C39.6562 32.6126 39.5147 32.2708 39.2627 32.0188C39.0107 31.7668 38.6689 31.6252 38.3125 31.6252V23.5627C38.3125 20.1771 36.9676 16.9301 34.5735 14.5361C32.1795 12.1421 28.9325 10.7971 25.5469 10.7971C22.1612 10.7971 18.9142 12.1421 16.5202 14.5361C14.1262 16.9301 12.7812 20.1771 12.7812 23.5627V45.0841C11.0223 47.8538 10.09 51.0678 10.0938 54.3489V60.8157L6.54037 66.7378L1.70539 67.9471C1.41474 68.0198 1.1567 68.1875 0.97228 68.4236C0.787855 68.6597 0.68762 68.9507 0.6875 69.2502V73.2815C0.6875 73.6379 0.829073 73.9797 1.08108 74.2317C1.33308 74.4837 1.67487 74.6252 2.03125 74.6252ZM75.9375 42.3752H77.2812V43.719H75.9375V42.3752ZM75.9375 63.8752V74.6252H63.8438V69.2502H67.875C68.2314 69.2502 68.5732 69.1087 68.8252 68.8567C69.0772 68.6047 69.2188 68.2629 69.2188 67.9065C69.2188 67.5501 69.0772 67.2083 68.8252 66.9563C68.5732 66.7043 68.2314 66.5627 67.875 66.5627H63.8438V63.8752H67.875C68.2314 63.8752 68.5732 63.7337 68.8252 63.4817C69.0772 63.2297 69.2188 62.8879 69.2188 62.5315C69.2188 62.1751 69.0772 61.8333 68.8252 61.5813C68.5732 61.3293 68.2314 61.1877 67.875 61.1877H63.8438V61.1206C64.6021 60.9647 65.2834 60.5521 65.773 59.9524C66.2626 59.3527 66.5304 58.6025 66.5312 57.8284V55.8127H69.0004L70.482 56.3066C72.0714 56.8347 73.454 57.8503 74.4333 59.209C75.4127 60.5676 75.939 62.2004 75.9375 63.8752ZM66.5312 53.1252V50.4377H67.875V53.1252H66.5312ZM73.25 42.3752V44.3909L68.7708 47.7502H66.5312V46.0706C66.5301 45.0908 66.1405 44.1516 65.4477 43.4588C64.7549 42.766 63.8157 42.3764 62.8359 42.3752H73.25ZM45.0312 39.0159C45.0312 37.7685 45.5268 36.5723 46.4088 35.6903C47.2908 34.8083 48.487 34.3127 49.7344 34.3127C50.9817 34.3127 52.178 34.8083 53.06 35.6903C53.942 36.5723 54.4375 37.7685 54.4375 39.0159V42.3752H45.0312V39.0159ZM45.0312 45.0627H62.8359C63.1031 45.063 63.3593 45.1693 63.5483 45.3582C63.7372 45.5472 63.8435 45.8033 63.8438 46.0706V57.8284C63.8438 58.0066 63.773 58.1775 63.647 58.3035C63.521 58.4295 63.3501 58.5002 63.1719 58.5002C62.9937 58.5002 62.8228 58.4295 62.6968 58.3035C62.5708 58.1775 62.5 58.0066 62.5 57.8284V51.2776C62.5 50.9212 62.3584 50.5794 62.1064 50.3274C61.8544 50.0754 61.5126 49.9338 61.1562 49.9338C60.7999 49.9338 60.4581 50.0754 60.2061 50.3274C59.9541 50.5794 59.8125 50.9212 59.8125 51.2776V59.1721C59.8125 59.3503 59.7417 59.5212 59.6157 59.6472C59.4897 59.7732 59.3188 59.844 59.1406 59.844C58.9624 59.844 58.7915 59.7732 58.6655 59.6472C58.5395 59.5212 58.4688 59.3503 58.4688 59.1721V51.1096C58.4688 50.7532 58.3272 50.4114 58.0752 50.1594C57.8232 49.9074 57.4814 49.7659 57.125 49.7659C56.7686 49.7659 56.4268 49.9074 56.1748 50.1594C55.9228 50.4114 55.7812 50.7532 55.7812 51.1096V59.1721C55.7812 59.3503 55.7105 59.5212 55.5845 59.6472C55.4585 59.7732 55.2876 59.844 55.1094 59.844C54.9312 59.844 54.7603 59.7732 54.6343 59.6472C54.5083 59.5212 54.4375 59.3503 54.4375 59.1721V50.9417C54.4375 50.5853 54.2959 50.2435 54.0439 49.9915C53.7919 49.7395 53.4501 49.5979 53.0938 49.5979C52.7374 49.5979 52.3956 49.7395 52.1436 49.9915C51.8916 50.2435 51.75 50.5853 51.75 50.9417V59.1721C51.75 59.3503 51.6792 59.5212 51.5532 59.6472C51.4272 59.7732 51.2563 59.844 51.0781 59.844C50.8999 59.844 50.729 59.7732 50.603 59.6472C50.477 59.5212 50.4062 59.3503 50.4062 59.1721V50.7737C50.4062 50.7335 50.4037 50.6941 50.4002 50.6548C50.4041 50.5829 50.4062 50.5105 50.4062 50.4377V47.7502C50.4062 47.3939 50.2647 47.0521 50.0127 46.8001C49.7607 46.5481 49.4189 46.4065 49.0625 46.4065C48.7061 46.4065 48.3643 46.5481 48.1123 46.8001C47.8603 47.0521 47.7188 47.3939 47.7188 47.7502V50.4377C47.7188 50.7941 47.5772 51.1359 47.3252 51.3879C47.0732 51.6399 46.7314 51.7815 46.375 51.7815C46.0186 51.7815 45.6768 51.6399 45.4248 51.3879C45.1728 51.1359 45.0312 50.7941 45.0312 50.4377V45.0627ZM39.6562 46.4065H42.3438V49.094H39.6562V46.4065ZM39.6562 51.7815H42.5749C42.7511 52.2807 43.024 52.7403 43.378 53.1339C43.7319 53.5276 44.16 53.8476 44.6377 54.0758C45.1154 54.3039 45.6334 54.4356 46.1621 54.4634C46.6908 54.4912 47.2197 54.4146 47.7188 54.2379V59.1721C47.7176 59.7964 47.8907 60.4087 48.2187 60.9399C48.5466 61.4712 49.0164 61.9003 49.5751 62.179C50.1338 62.4576 50.7591 62.5748 51.3808 62.5173C52.0025 62.4597 52.5957 62.2297 53.0938 61.8532C53.6736 62.2933 54.3815 62.5315 55.1094 62.5315C55.8373 62.5315 56.5452 62.2933 57.125 61.8532C57.1665 61.8845 57.2068 61.9172 57.2498 61.9466L55.9156 74.6252H43.543C44.7146 73.4813 45.567 72.0511 46.0156 70.4763C46.4643 68.9015 46.4937 67.2369 46.101 65.6472C45.7082 64.0576 44.9069 62.5982 43.7765 61.4135C42.6461 60.2289 41.2258 59.3602 39.6562 58.8935V51.7815ZM43.6875 67.9065C43.6875 69.2353 43.2935 70.5343 42.5552 71.6392C41.8169 72.7441 40.7676 73.6053 39.5399 74.1138C38.3122 74.6223 36.9613 74.7554 35.658 74.4961C34.3547 74.2369 33.1575 73.597 32.2179 72.6574C31.2782 71.7177 30.6383 70.5206 30.3791 69.2173C30.1199 67.9139 30.2529 66.563 30.7614 65.3353C31.27 64.1076 32.1311 63.0583 33.236 62.3201C34.3409 61.5818 35.6399 61.1877 36.9688 61.1877C38.7501 61.1897 40.4578 61.8983 41.7174 63.1578C42.977 64.4174 43.6855 66.1252 43.6875 67.9065ZM36.9688 37.0002H31.5938V34.3127H36.9688V37.0002ZM32.9375 31.6252V28.9377H35.625V31.6252H32.9375ZM35.625 26.2502H32.9375V23.5627H35.625V26.2502ZM33.1313 16.9372C34.1269 18.0736 34.8539 19.4196 35.2583 20.8752H32.4294C32.1737 20.2229 31.8265 19.6102 31.3982 19.0556L33.1313 16.9372ZM26.2188 13.5095C27.9656 13.624 29.652 14.1946 31.1095 15.1643L29.3974 17.2572C28.4332 16.6659 27.3453 16.3054 26.2188 16.204V13.5095ZM30.25 23.5627V31.6252C29.8936 31.6252 29.5518 31.7668 29.2998 32.0188C29.0478 32.2708 28.9062 32.6126 28.9062 32.969V37.0002H27.4424C25.1785 36.9981 22.9364 37.4415 20.8438 38.3054V23.5627C20.8438 22.3154 21.3393 21.1191 22.2213 20.2371C23.1033 19.3551 24.2995 18.8596 25.5469 18.8596C26.7942 18.8596 27.9905 19.3551 28.8725 20.2371C29.7545 21.1191 30.25 22.3154 30.25 23.5627ZM23.5312 13.6875V16.4538C22.549 16.7326 21.6352 17.2123 20.8478 17.8624L19.1473 15.7834C20.415 14.7365 21.9204 14.0168 23.5312 13.6875ZM17.304 17.7749L19.095 19.9638C18.9308 20.2574 18.7869 20.562 18.6644 20.8752H15.8354C16.1434 19.7652 16.6402 18.7164 17.304 17.7749ZM15.4688 23.5627H18.1562V26.2502H15.4688V23.5627ZM15.4688 28.9377H18.1562V31.6252H15.4688V28.9377ZM15.4688 34.3127H18.1562V37.0002H15.4688V34.3127ZM15.4688 39.6877H18.1562V39.701C17.1939 40.3134 16.2937 41.0184 15.4688 41.8062V39.6877ZM27.4424 39.6877H36.9688V53.1252H12.8328C13.144 49.4632 14.8174 46.0512 17.5224 43.5632C20.2274 41.0752 23.7672 39.6923 27.4424 39.6877ZM12.7812 55.8127H36.9688V58.5002C35.0996 58.499 33.2725 59.055 31.7209 60.0973C30.1694 61.1396 28.9637 62.6208 28.2581 64.3516C27.5525 66.0824 27.3788 67.9843 27.7594 69.8143C28.14 71.6443 29.0576 73.3193 30.3948 74.6252H22.1569C19.6712 74.6224 17.2881 73.6338 15.5304 71.8761C13.7727 70.1184 12.7841 67.7353 12.7812 65.2496V55.8127ZM3.375 70.2994L7.73211 69.2101C7.90334 69.1674 8.06446 69.0913 8.20626 68.9863C8.34807 68.8812 8.46777 68.7492 8.55852 68.5979L10.1191 65.9969C10.2483 68.1199 10.9401 70.1704 12.1235 71.9377H3.375V70.2994Z" fill="#66a038"/>
<path d="M32.9375 67.9065C32.9375 68.7038 33.1739 69.4832 33.6169 70.1461C34.0598 70.8091 34.6894 71.3258 35.4261 71.6309C36.1627 71.936 36.9732 72.0158 37.7552 71.8603C38.5372 71.7047 39.2555 71.3208 39.8193 70.757C40.3831 70.1932 40.767 69.4749 40.9226 68.693C41.0781 67.911 40.9983 67.1004 40.6931 66.3638C40.388 65.6272 39.8713 64.9976 39.2084 64.5546C38.5455 64.1117 37.7661 63.8752 36.9688 63.8752C35.9 63.8764 34.8753 64.3015 34.1196 65.0573C33.3638 65.813 32.9387 66.8377 32.9375 67.9065ZM38.3125 67.9065C38.3125 68.1723 38.2337 68.4321 38.086 68.653C37.9384 68.874 37.7285 69.0463 37.483 69.148C37.2374 69.2497 36.9673 69.2763 36.7066 69.2244C36.4459 69.1726 36.2065 69.0446 36.0186 68.8567C35.8307 68.6687 35.7027 68.4293 35.6508 68.1687C35.599 67.908 35.6256 67.6378 35.7273 67.3923C35.829 67.1467 36.0012 66.9369 36.2222 66.7892C36.4432 66.6416 36.703 66.5627 36.9688 66.5627C37.325 66.5631 37.6666 66.7048 37.9185 66.9568C38.1704 67.2087 38.3121 67.5502 38.3125 67.9065Z" fill="#66a038"/>
<path d="M65.7858 17.4057C65.6017 17.5284 65.4507 17.6946 65.3463 17.8897C65.2419 18.0847 65.1873 18.3026 65.1873 18.5238C65.1873 18.7451 65.2419 18.9629 65.3463 19.158C65.4507 19.353 65.6017 19.5193 65.7858 19.642L66.1575 19.8897C67.6256 20.8719 68.7265 22.3133 69.2876 23.9882C69.3767 24.2558 69.5478 24.4886 69.7766 24.6535C70.0055 24.8185 70.2804 24.9073 70.5625 24.9073C70.8445 24.9073 71.1195 24.8185 71.3483 24.6535C71.5771 24.4886 71.7482 24.2558 71.8374 23.9882C72.3985 22.3133 73.4993 20.8719 74.9675 19.8897L75.3392 19.642C75.5233 19.5193 75.6742 19.353 75.7786 19.158C75.8831 18.9629 75.9377 18.7451 75.9377 18.5238C75.9377 18.3026 75.8831 18.0847 75.7786 17.8897C75.6742 17.6946 75.5233 17.5284 75.3392 17.4057L74.9675 17.1579C73.4993 16.1757 72.3985 14.7343 71.8374 13.0595C71.7482 12.7918 71.5771 12.5591 71.3483 12.3941C71.1195 12.2291 70.8445 12.1404 70.5625 12.1404C70.2804 12.1404 70.0055 12.2291 69.7766 12.3941C69.5478 12.5591 69.3767 12.7918 69.2876 13.0595C68.7265 14.7343 67.6256 16.1757 66.1575 17.1579L65.7858 17.4057ZM70.5625 16.4914C71.0687 17.2415 71.668 17.9244 72.346 18.5238C71.668 19.1232 71.0687 19.8061 70.5625 20.5562C70.0562 19.8061 69.457 19.1232 68.779 18.5238C69.457 17.9244 70.0562 17.2415 70.5625 16.4914Z" fill="#66a038"/>
<path d="M53.692 27.0326L54.0637 27.2804C55.5319 28.2625 56.6327 29.704 57.1938 31.3788C57.283 31.6464 57.4541 31.8792 57.6829 32.0442C57.9117 32.2091 58.1866 32.2979 58.4687 32.2979C58.7508 32.2979 59.0257 32.2091 59.2545 32.0442C59.4834 31.8792 59.6545 31.6464 59.7436 31.3788C60.3047 29.704 61.4056 28.2625 62.8737 27.2804L63.2454 27.0326C63.4295 26.9099 63.5805 26.7437 63.6849 26.5486C63.7893 26.3535 63.8439 26.1357 63.8439 25.9145C63.8439 25.6932 63.7893 25.4754 63.6849 25.2803C63.5805 25.0853 63.4295 24.919 63.2454 24.7963L62.8737 24.5485C61.4056 23.5664 60.3047 22.125 59.7436 20.4501C59.6545 20.1825 59.4834 19.9497 59.2545 19.7847C59.0257 19.6198 58.7508 19.531 58.4687 19.531C58.1866 19.531 57.9117 19.6198 57.6829 19.7847C57.4541 19.9497 57.283 20.1825 57.1938 20.4501C56.6327 22.125 55.5319 23.5664 54.0637 24.5485L53.692 24.7963C53.5079 24.919 53.357 25.0853 53.2525 25.2803C53.1481 25.4754 53.0935 25.6932 53.0935 25.9145C53.0935 26.1357 53.1481 26.3535 53.2525 26.5486C53.357 26.7437 53.5079 26.9099 53.692 27.0326ZM58.4687 23.882C58.975 24.6321 59.5742 25.315 60.2522 25.9145C59.5742 26.5139 58.975 27.1968 58.4687 27.9469C57.9625 27.1968 57.3632 26.5139 56.6852 25.9145C57.3632 25.315 57.9625 24.6321 58.4687 23.882Z" fill="#66a038"/>
<path d="M65.933 7.66355L65.4374 7.33298C63.397 5.96824 61.867 3.96528 61.087 1.63784C60.9978 1.37022 60.8267 1.13743 60.5979 0.972476C60.3691 0.807518 60.0942 0.71875 59.8121 0.71875C59.53 0.71875 59.2551 0.807518 59.0263 0.972476C58.7974 1.13743 58.6263 1.37022 58.5372 1.63784C57.7571 3.96532 56.2271 5.96834 54.1868 7.33315L53.6913 7.66355C53.5073 7.78626 53.3564 7.95251 53.252 8.14754C53.1476 8.34257 53.093 8.56035 53.093 8.78155C53.093 9.00275 53.1476 9.22052 53.252 9.41555C53.3564 9.61058 53.5073 9.77683 53.6913 9.89955L54.187 10.2301C56.2273 11.5949 57.7573 13.5978 58.5374 15.9253C58.6265 16.1929 58.7976 16.4257 59.0264 16.5906C59.2552 16.7556 59.5302 16.8443 59.8122 16.8443C60.0943 16.8443 60.3692 16.7556 60.5981 16.5906C60.8269 16.4257 60.998 16.1929 61.0871 15.9253C61.8672 13.5978 63.3972 11.5948 65.4375 10.2299L65.933 9.89955C66.1171 9.77683 66.268 9.61058 66.3723 9.41555C66.4767 9.22052 66.5313 9.00275 66.5313 8.78155C66.5313 8.56035 66.4767 8.34257 66.3723 8.14754C66.268 7.95251 66.1171 7.78626 65.933 7.66355ZM59.8126 12.3212C58.9983 10.9753 57.9603 9.77825 56.7433 8.78155C57.9603 7.78485 58.9983 6.5878 59.8126 5.24194C60.6269 6.5878 61.6649 7.78485 62.8819 8.78155C61.6649 9.77825 60.6269 10.9753 59.8126 12.3212Z" fill="#66a038"/>
</svg>
