<svg width="14" height="14" viewBox="0 0 14 14" fill="none" xmlns="http://www.w3.org/2000/svg">
<path d="M0.00814536 6.67325C-0.0148264 7.14928 0.0108255 7.62634 0.0846633 8.09716C0.555803 11.0045 2.7868 13.3113 5.67664 13.8792C6.10955 13.9598 6.54897 14.0003 6.98932 14C8.2631 14.002 9.51331 13.6565 10.6053 13.0006L9.7013 11.5023C7.21493 12.9948 3.98948 12.1889 2.49713 9.7025C1.00474 7.21606 1.81055 3.99051 4.29692 2.49812C5.18942 1.96242 6.22102 1.70404 7.2606 1.75589C10.1005 1.98851 12.278 4.37612 12.2488 7.22552V7.87575C12.2488 8.3591 11.857 8.75089 11.3736 8.75089C10.8903 8.75089 10.4985 8.3591 10.4985 7.87575V7.00061C10.4985 5.06732 8.93131 3.50005 6.99807 3.50005C5.06483 3.49053 3.4899 5.05003 3.48038 6.98327C3.47086 8.91657 5.03032 10.4916 6.9635 10.5011C7.85792 10.5055 8.72013 10.1673 9.37313 9.55602C10.2948 10.6672 11.9427 10.8208 13.0539 9.89913C13.6556 9.39998 14.0024 8.65764 13.999 7.87581V7.22558C14.0625 3.43064 11.1355 0.254312 7.34811 0.00828816C3.48076 -0.178226 0.194545 2.80584 0.00814536 6.67325ZM6.99807 8.75089C6.03145 8.75089 5.24784 7.96726 5.24784 7.00061C5.24784 6.03396 6.03145 5.25033 6.99807 5.25033C7.96469 5.25033 8.7483 6.03396 8.7483 7.00061C8.7483 7.96726 7.96469 8.75089 6.99807 8.75089Z" fill="#66a038"/>
</svg>
