<svg width="81" height="85" viewBox="0 0 81 85" fill="none" xmlns="http://www.w3.org/2000/svg">
<path d="M71.6663 59.5H69.4478C67.892 59.5014 66.3577 59.8636 64.9655 60.5583C62.9398 61.5651 60.5595 61.5651 58.5338 60.5583C57.7258 60.1618 56.8682 59.8758 55.9838 59.7082L58.7449 38.25H61.7497C62.532 38.25 63.1663 37.6157 63.1663 36.8333V31.1667C63.1663 30.3843 62.532 29.75 61.7497 29.75H56.083V25.5C56.083 25.1242 55.9335 24.764 55.6679 24.4984L48.9997 17.8302V13.43L51.1473 11.713L54.8151 19.0499L57.3509 17.7834L53.4098 9.9025L55.1622 8.5H60.333C61.1154 8.5 61.7497 7.86569 61.7497 7.08333V1.41667C61.7497 0.634312 61.1154 0 60.333 0H46.1663C39.1283 0.0085 33.4248 5.712 33.4163 12.75C33.4163 13.5324 34.0507 14.1667 34.833 14.1667H37.6663V17.8302L33.8314 21.6651C33.5658 21.9307 33.4163 22.2909 33.4163 22.6667V29.75H30.583V18.4167C30.5809 18.2412 30.5458 18.0678 30.4796 17.9052C30.4537 17.8502 30.4243 17.7967 30.3918 17.7452C30.3578 17.671 30.3179 17.5994 30.2728 17.5312L24.9163 10.8375V1.41667C24.9163 0.634312 24.282 0 23.4997 0H14.9997C14.2173 0 13.583 0.634312 13.583 1.41667V10.8375L8.22659 17.5312C8.18143 17.5994 8.14159 17.671 8.10759 17.7452C8.07501 17.7967 8.04561 17.8502 8.01976 17.9052C7.95353 18.0678 7.91847 18.2412 7.91634 18.4167V29.75H2.24967C1.46732 29.75 0.833008 30.3843 0.833008 31.1667V36.8333C0.833008 37.6157 1.46732 38.25 2.24967 38.25H5.25442L10.761 80.9313C10.8522 81.6379 11.4539 82.1668 12.1663 82.1667H45.5147C47.1214 83.9676 49.4195 84.9982 51.833 85H54.0515C55.6074 84.9986 57.1416 84.6364 58.5338 83.9417C60.5595 82.9349 62.9398 82.9349 64.9655 83.9417C66.3577 84.6364 67.892 84.9986 69.4478 85H71.6663C76.3589 84.9954 80.1617 81.1925 80.1663 76.5V68C80.1617 63.3075 76.3589 59.5046 71.6663 59.5ZM56.083 2.83333H58.9163V5.66667H56.083V2.83333ZM60.333 32.5833V35.4167H40.4997V32.5833H60.333ZM36.3503 11.3333C37.0609 6.45734 41.2388 2.83953 46.1663 2.83333H53.2497V6.40333L47.0858 11.3333H36.3503ZM46.1663 14.1667V17H40.4997V14.1667H46.1663ZM36.2497 23.2532L39.6695 19.8333H46.9965L53.2497 26.0865V29.75H36.2497V23.2532ZM34.833 32.5833H37.6663V42.5C37.6633 43.0396 37.9672 43.5338 38.4498 43.775L46.9498 48.025C47.3643 48.2294 47.6785 48.5926 47.821 49.0322C47.9678 49.5042 47.9168 50.0154 47.6793 50.4489C47.2717 51.2669 46.2783 51.5994 45.4603 51.1916C45.4591 51.1911 45.4578 51.1904 45.4566 51.1898L39.7049 48.314C39.0019 47.9705 38.1537 48.2619 37.8101 48.965C37.7161 49.1576 37.6669 49.3691 37.6663 49.5833V63.75C37.6663 65.3149 36.3979 66.5833 34.833 66.5833V53.8333H31.9997V66.5833H29.1663V53.8333H26.333V66.5833H23.4997V53.8333H20.6663V66.5833C19.1015 66.5833 17.833 65.3149 17.833 63.75V32.5833H34.833ZM16.4163 2.83333H22.083V9.91667H16.4163V2.83333ZM15.6797 12.75H22.8197L26.2197 17H12.2797L15.6797 12.75ZM10.7497 19.8333H27.7497V29.75H10.7497V19.8333ZM3.66634 35.4167V32.5833H14.9997V35.4167H3.66634ZM43.333 68V76.5C43.3355 77.4658 43.5032 78.424 43.8288 79.3333H13.4116L8.11042 38.25H14.9997V63.75C14.9997 66.8796 17.5367 69.4167 20.6663 69.4167H34.833C37.9626 69.4167 40.4997 66.8796 40.4997 63.75V51.8755L44.2 53.7257C46.436 54.8292 49.1433 53.9112 50.2469 51.6752C50.2515 51.666 50.2559 51.6566 50.2605 51.6474C50.8093 50.5596 50.9026 49.2979 50.5198 48.1412C50.1422 46.9839 49.3152 46.0273 48.2248 45.4863L40.4997 41.6245V38.25H55.8889L53.1463 59.5H51.833C47.1405 59.5046 43.3376 63.3075 43.333 68ZM77.333 76.5C77.333 79.6296 74.7959 82.1667 71.6663 82.1667H69.4478C68.332 82.1651 67.2318 81.9053 66.2334 81.4073C63.4089 80.0039 60.0904 80.0039 57.2659 81.4073C56.2675 81.9053 55.1673 82.1651 54.0515 82.1667H51.833C48.7034 82.1667 46.1663 79.6296 46.1663 76.5V74.3183C47.7199 75.7221 49.7392 76.4995 51.833 76.5H54.0515C55.6074 76.4986 57.1416 76.1364 58.5338 75.4417C60.5595 74.4349 62.9398 74.4349 64.9655 75.4417C66.3577 76.1364 67.892 76.4986 69.4478 76.5H71.6663C73.7602 76.4995 75.7795 75.7221 77.333 74.3183V76.5ZM71.6663 73.6667H69.4478C68.332 73.6651 67.2318 73.4053 66.2334 72.9073C63.4089 71.5039 60.0904 71.5039 57.2659 72.9073C56.2675 73.4053 55.1673 73.6651 54.0515 73.6667H51.833C48.7034 73.6667 46.1663 71.1296 46.1663 68C46.1663 64.8704 48.7034 62.3333 51.833 62.3333H54.0515C55.1673 62.3349 56.2675 62.5947 57.2659 63.0927C60.0906 64.4952 63.4088 64.4952 66.2334 63.0927C67.2318 62.5947 68.332 62.3349 69.4478 62.3333H71.6663C74.7959 62.3333 77.333 64.8704 77.333 68C77.333 71.1296 74.7959 73.6667 71.6663 73.6667Z" fill="#66a038"/>
</svg>
