<svg width="12" height="12" viewBox="0 0 12 12" fill="none" xmlns="http://www.w3.org/2000/svg">
<path d="M8.86937 7.57408C8.48823 7.17996 8.01241 7.17996 7.63369 7.57408C7.3448 7.87412 7.05591 8.17417 6.77188 8.47929C6.6942 8.5632 6.62865 8.581 6.53397 8.52506C6.34704 8.41827 6.14797 8.33181 5.96833 8.21485C5.13079 7.66308 4.4292 6.95366 3.80772 6.15525C3.49941 5.75859 3.22509 5.33395 3.0333 4.85592C2.99446 4.7593 3.00174 4.69573 3.077 4.61691C3.36589 4.3245 3.6475 4.02446 3.93153 3.72442C4.32724 3.30741 4.32724 2.81921 3.92911 2.39966C3.70333 2.16065 3.47756 1.92672 3.25179 1.6877C3.01874 1.4436 2.78811 1.19696 2.55263 0.9554C2.17149 0.566365 1.69567 0.566365 1.31696 0.957943C1.02564 1.25798 0.746459 1.56565 0.450286 1.86061C0.175962 2.13268 0.0375864 2.46577 0.00845458 2.85481C-0.0376707 3.48794 0.110416 4.08548 0.319193 4.66776C0.746459 5.87301 1.39707 6.94349 2.18605 7.92498C3.25179 9.25228 4.52388 10.3024 6.01203 11.0601C6.68206 11.4009 7.37636 11.6628 8.13136 11.706C8.65088 11.7365 9.10242 11.5992 9.46414 11.1746C9.71176 10.8847 9.99094 10.6203 10.2531 10.3431C10.6416 9.93118 10.644 9.43281 10.258 9.02597C9.79673 8.54032 9.33305 8.0572 8.86937 7.57408Z" fill="#66a038"/>
<path d="M8.40598 6.05664L9.30179 5.89645C9.16098 5.03447 8.77256 4.25386 8.18264 3.63345C7.55874 2.97997 6.76975 2.56805 5.90065 2.44092L5.77441 3.38426C6.44687 3.48343 7.05864 3.80126 7.54174 4.30726C7.99814 4.78529 8.29674 5.39045 8.40598 6.05664Z" fill="#66a038"/>
<path d="M9.80595 1.97824C8.77177 0.895038 7.46327 0.211046 6.01882 0L5.89258 0.94335C7.14039 1.12643 8.27167 1.71888 9.16505 2.65206C10.0123 3.53947 10.5682 4.66081 10.7697 5.89403L11.6655 5.73384C11.43 4.30483 10.7867 3.00804 9.80595 1.97824Z" fill="#66a038"/>
</svg>
