<svg width="83" height="83" viewBox="0 0 83 83" fill="none" xmlns="http://www.w3.org/2000/svg">
<path d="M81.4321 12.6144L82.5248 11.5216C83.1579 10.8886 83.1579 9.86213 82.5248 9.22894C81.8918 8.59607 80.8653 8.59607 80.2322 9.22894L79.1394 10.3217L78.0473 9.22959C77.7433 8.92564 77.3309 8.75478 76.901 8.75478H75.118L66.838 0.474813C66.5339 0.170861 66.1217 0 65.6918 0H5.83814C2.61901 0 0 2.61885 0 5.83814V36.2172C0 39.4364 2.61901 42.0554 5.83814 42.0554H19.9609L10.4639 51.5526C9.36122 52.6553 8.75396 54.1214 8.75396 55.6808C8.75396 57.2401 9.36122 58.7062 10.4639 59.8091L31.9451 81.2903C33.0477 82.3929 34.5138 83.0002 36.0733 83.0002C37.6328 83.0002 39.0989 82.3929 40.2015 81.2903L56.2902 65.2017C56.9234 64.5687 56.9234 63.5422 56.2902 62.909C55.6572 62.2763 54.6307 62.2762 53.9977 62.909L37.9088 78.9976C37.4186 79.4879 36.7666 79.7579 36.0733 79.7579C35.3799 79.7579 34.728 79.4879 34.2377 78.9976L12.7564 57.5164C12.2662 57.0262 11.9961 56.3742 11.9961 55.6808C11.9961 54.9873 12.2662 54.3355 12.7564 53.8453L54.6044 11.9972H76.2297L76.847 12.6146L73.0985 16.3631C72.4635 16.0587 71.753 15.888 71.0031 15.888C68.3215 15.888 66.1398 18.0696 66.1398 20.7512C66.1398 23.4328 68.3215 25.6144 71.0031 25.6144C73.6846 25.6144 75.8663 23.4328 75.8663 20.7512C75.8663 20.0013 75.6954 19.2906 75.391 18.6558L79.1395 14.9072L79.7569 15.5245V37.1497L64.3139 52.5928C63.6808 53.2259 63.6808 54.2523 64.3139 54.8855C64.9469 55.5184 65.9734 55.5184 66.6065 54.8855L82.5244 38.9677C82.8283 38.6636 82.9992 38.2514 82.9992 37.8215V14.8528C82.9992 14.4229 82.8283 14.0106 82.5244 13.7065L81.4321 12.6144ZM29.1111 29.0878C28.2169 29.0878 27.4895 28.3604 27.4895 27.4662C27.4895 26.5718 28.2169 25.8445 29.1111 25.8445C30.0053 25.8445 30.7327 26.5718 30.7327 27.4662C30.7327 28.3602 30.0053 29.0878 29.1111 29.0878ZM53.933 8.75494C53.5031 8.75494 53.0907 8.9258 52.7867 9.22975L33.9346 28.0817C33.9602 27.8799 33.975 27.6747 33.975 27.466C33.975 24.7841 31.7932 22.6022 29.1113 22.6022C26.4295 22.6022 24.2475 24.7841 24.2475 27.466C24.2475 30.1479 26.4293 32.3297 29.1113 32.3297C29.3199 32.3297 29.5251 32.315 29.7269 32.2894L23.2032 38.8131H5.83814C4.40673 38.8131 3.24215 37.6485 3.24215 36.2171V5.83814C3.24215 4.40673 4.40673 3.24215 5.83814 3.24215H65.0202L70.5329 8.75494H53.933ZM71.0031 22.372C70.1092 22.372 69.382 21.6448 69.382 20.7509C69.382 19.857 70.1092 19.1298 71.0031 19.1298C71.373 19.1298 71.7134 19.2558 71.9866 19.4652C72.0295 19.5213 72.0752 19.5761 72.1265 19.6273C72.1777 19.6785 72.2325 19.7243 72.2886 19.7672C72.498 20.0404 72.624 20.3808 72.624 20.7507C72.6241 21.6448 71.8969 22.372 71.0031 22.372Z" fill="#66a038"/>
<path d="M53.9163 47.9572C54.3462 47.9572 54.7586 47.7863 55.0626 47.4824L58.7306 43.8142C59.3636 43.1812 59.3636 42.1547 58.7306 41.5215C58.0975 40.8886 57.0711 40.8886 56.438 41.5215L53.9163 44.0434L45.8923 36.0196C45.2594 35.3867 44.2328 35.3867 43.5998 36.0196C42.9667 36.6526 42.9667 37.6791 43.5998 38.3123L52.77 47.4824C53.0741 47.7863 53.4865 47.9572 53.9163 47.9572Z" fill="#66a038"/>
<path d="M66.5243 33.7269C65.8912 33.094 64.8648 33.094 64.2316 33.7269L62.1683 35.7902L59.8758 33.4978L61.9391 31.4345C62.5721 30.8015 62.5721 29.775 61.9391 29.1418C61.306 28.509 60.2796 28.509 59.6464 29.1418L57.5831 31.2051L55.2906 28.9126L57.3539 26.8493C57.9869 26.2163 57.987 25.1898 57.3539 24.5566C56.7208 23.9239 55.6944 23.9238 55.0613 24.5566L51.8518 27.7662C51.5478 28.0701 51.377 28.4825 51.377 28.9125C51.377 29.3424 51.5478 29.7546 51.8518 30.0587L61.022 39.2288C61.3385 39.5452 61.7535 39.7036 62.1683 39.7036C62.5831 39.7036 62.9981 39.5452 63.3145 39.2288L66.5241 36.0192C67.1573 35.3864 67.1573 34.3599 66.5243 33.7269Z" fill="#66a038"/>
<path d="M48.5953 52.3657C49.3927 52.7723 50.3691 52.4549 50.7757 51.6572C51.1821 50.8594 50.8648 49.8834 50.0669 49.477L37.9165 43.2871C37.2907 42.9682 36.531 43.0887 36.0344 43.5852C35.5379 44.0817 35.4174 44.8417 35.7363 45.4673L41.9262 57.6177C42.2125 58.1799 42.7815 58.5035 43.3719 58.5033C43.6194 58.5033 43.8709 58.4464 44.1064 58.3263C44.9041 57.9199 45.2214 56.9438 44.8151 56.1461L44.3181 55.1702L47.6198 51.8686L48.5953 52.3657ZM42.7705 52.1328L40.8894 48.4401L44.5822 50.3214L42.7705 52.1328Z" fill="#66a038"/>
<path d="M33.0538 64.9058C32.4207 65.5389 32.4206 66.5653 33.0538 67.1985C33.3704 67.515 33.7852 67.6733 34.2 67.6733C34.6149 67.6733 35.0299 67.515 35.3463 67.1985L37.639 64.906C39.5352 63.0098 39.5352 59.9246 37.639 58.0283C35.8367 56.226 32.961 56.1381 31.0522 57.7618C30.9929 57.8067 30.9352 57.8543 30.8812 57.9085L30.7612 58.0283C30.455 58.3345 30.048 58.5031 29.615 58.5031C29.182 58.5031 28.7749 58.3345 28.4687 58.0283C27.8367 57.3962 27.8367 56.3678 28.4687 55.7356L30.7612 53.4431C31.3943 52.81 31.3944 51.7836 30.7612 51.1504C30.1282 50.5177 29.1017 50.5175 28.4687 51.1504L26.176 53.4429C24.2799 55.3391 24.2799 58.4245 26.176 60.3208C27.0947 61.2393 28.3159 61.7451 29.6148 61.7451C30.912 61.7451 32.1317 61.2406 33.0502 60.324C33.0513 60.3229 33.0526 60.3219 33.0538 60.3208C33.6857 59.6886 34.7142 59.6886 35.3463 60.3208C35.6525 60.627 35.8211 61.0339 35.8211 61.4669C35.8211 61.9 35.6525 62.3071 35.3463 62.6132L33.0538 64.9058Z" fill="#66a038"/>
<path d="M27.7746 10.4655C26.995 10.0255 26.0062 10.3005 25.566 11.0802L15.1101 29.6017C14.67 30.3814 14.9451 31.3701 15.7248 31.8102C15.9767 31.9524 16.2502 32.02 16.5203 32.02C17.086 32.02 17.6354 31.7233 17.9334 31.1955L28.3893 12.6741C28.8294 11.8943 28.5543 10.9055 27.7746 10.4655Z" fill="#66a038"/>
<path d="M20.2912 14.5894C20.2912 11.9074 18.1093 9.72559 15.4274 9.72559C12.7455 9.72559 10.5635 11.9074 10.5635 14.5894C10.5635 17.2713 12.7453 19.4533 15.4272 19.4533C18.1092 19.4533 20.2912 17.2713 20.2912 14.5894ZM13.8057 14.5894C13.8057 13.6952 14.533 12.9678 15.4272 12.9678C16.3214 12.9678 17.0488 13.6952 17.0488 14.5894C17.0488 15.4837 16.3214 16.2111 15.4272 16.2111C14.533 16.2111 13.8057 15.4837 13.8057 14.5894Z" fill="#66a038"/>
<path d="M60.3018 57.2754C59.8738 57.2754 59.4572 57.4488 59.1556 57.7505C58.8541 58.0519 58.6807 58.4701 58.6807 58.8965C58.6807 59.323 58.8541 59.7412 59.1556 60.0426C59.4572 60.3441 59.8738 60.5176 60.3018 60.5176C60.7281 60.5176 61.1463 60.3443 61.4479 60.0426C61.7494 59.7412 61.9228 59.323 61.9228 58.8965C61.9228 58.4701 61.7494 58.0519 61.4479 57.7505C61.1463 57.449 60.7281 57.2754 60.3018 57.2754Z" fill="#66a038"/>
</svg>
