<?xml version="1.0" standalone="no"?>
<!DOCTYPE svg PUBLIC "-//W3C//DTD SVG 20010904//EN"
 "http://www.w3.org/TR/2001/REC-SVG-20010904/DTD/svg10.dtd">
<svg version="1.0" xmlns="http://www.w3.org/2000/svg"
 width="317.000000pt" height="317.000000pt" viewBox="0 0 317.000000 317.000000"
 preserveAspectRatio="xMidYMid meet">
<metadata>
Created by potrace 1.14, written by Peter Selinger 2001-2017
</metadata>
<g transform="translate(0.000000,317.000000) scale(0.100000,-0.100000)"
fill="#000000" stroke="none">
<path d="M16 2741 c-17 -18 -16 -24 14 -128 17 -59 35 -139 41 -178 6 -38 12
-81 15 -95 3 -14 7 -155 9 -315 6 -396 11 -462 42 -614 73 -362 335 -658 773
-875 213 -106 450 -186 750 -254 96 -22 198 -43 225 -48 28 -4 55 -8 60 -10 6
-1 28 -5 50 -8 23 -4 50 -8 60 -10 11 -2 63 -9 115 -16 52 -6 106 -13 120 -16
14 -2 68 -6 120 -10 52 -3 104 -8 115 -10 11 -2 74 -4 140 -5 175 -1 299 35
306 91 8 73 -22 93 -177 119 -65 11 -139 22 -164 25 -119 14 -140 17 -193 21
-90 6 -180 15 -207 20 -14 2 -50 7 -80 10 -30 3 -66 8 -80 10 -14 3 -43 7 -65
10 -41 5 -104 14 -140 21 -11 2 -33 7 -50 10 -291 52 -709 165 -880 239 -462
198 -681 468 -731 905 -3 30 -8 64 -10 74 -2 10 -6 116 -9 235 -8 330 -16 448
-34 548 -5 24 -8 43 -6 43 1 0 36 -20 78 -44 43 -24 119 -57 170 -74 72 -24
452 -117 562 -138 11 -2 43 -8 71 -14 28 -6 62 -13 77 -15 262 -48 667 -159
855 -234 312 -125 657 -383 842 -630 136 -181 218 -404 233 -633 3 -32 3 -58
1 -58 -1 0 -27 35 -57 78 -152 218 -396 426 -669 571 -181 97 -326 155 -783
311 -431 148 -665 267 -860 438 -44 38 -89 80 -100 93 -11 13 -34 41 -52 62
-36 42 -52 34 -27 -14 55 -106 199 -263 323 -352 184 -132 330 -200 921 -429
303 -117 559 -245 742 -370 281 -192 470 -429 557 -700 12 -36 28 -71 34 -77
22 -18 64 -20 87 -4 21 15 21 19 16 193 -6 191 -12 268 -32 410 -9 59 -44 189
-69 257 -139 367 -554 743 -1049 948 -186 77 -548 180 -776 221 -14 2 -60 11
-103 20 -42 8 -89 18 -104 20 -15 3 -59 12 -98 20 -69 15 -79 17 -140 30 -75
15 -248 58 -330 81 -162 46 -290 123 -365 221 -35 46 -58 52 -84 23z"/>
</g>
</svg>
