<svg version="1.2" xmlns="http://www.w3.org/2000/svg" viewBox="0 0 335 146" width="335" height="146">
	<title>ecocleаn Logo-ai</title>
	<style>
		.s0 { fill: none } 
		.s1 { fill: #00928e } 
	</style>
	<g id="Layer 1">
		<g id="&lt;Group&gt;">
			<g id="&lt;Group&gt;">
				<path id="&lt;Compound Path&gt;" class="s0" d="m50.9 97.5c0.2 2.9 0 3.9-1.5 3.9-1.9 0-2-1.3-3.4-4.5-1-2.5-2.3-3.6-7.5-3.6h-1.5c-3.4 0-3.7 0.9-3.7 2.8v11.1c0 3.6 0.3 8.8 7 8.8h1.4c7.8 0 11.3-5.1 12.9-8.1 0.9-1.7 1.5-3 2.9-3 1 0 1.8 0.5 1.8 1.7 0 3.9-0.7 1.9-1.2 9.6-0.3 3.5-0.4 3.7-5.1 3.6l-9.7-0.3c-19.3-0.6-22 0.2-29.4 0.2-0.7 0-2.5 0-2.5-1.7 0-1.4 1.4-1.4 2.2-1.5 4.2-0.2 5.5-2.6 5.5-7.3v-31.9c0-4.7-1.3-7.1-5.5-7.3-0.8-0.1-2.2-0.1-2.2-1.5 0-1.7 1.8-1.7 2.5-1.7 4.6 0 5.3 0.2 10.7 0.3l11 0.2c3.6 0 12.7-0.2 15.1-0.3 1.5-0.1 4-0.3 4.9 0 0.7 0.2 0.6 0.7 0.6 2.9v4.2c0 4.6-0.7 4.8-1.6 4.8-1.2 0-1.5-0.5-2.4-2-2.5-3.8-4.4-6.4-13.2-6.4-5.9 0-5.7 1.5-5.7 3.6v12.7c0 2.9 0.6 3.4 2.2 3.4h3.6c3.3 0 5.7 0.1 7.7-4.5 0.9-2 0.9-3.6 2.6-3.6 1.1 0 1.8 0.7 1.8 1.9z"/>
				<path id="&lt;Compound Path&gt;" class="s0" d="m109.7 74.9c0.3 1.6 0.9 4.2-1.3 4.2-1.7 0-2.5-1.9-4.2-3.9-3.6-4.2-5.3-6.5-10.7-6.5-12.7 0-19.1 12.6-19.1 24.4 0 15 8.3 24.7 18.4 24.7 3.4 0 7.6-1.3 10.8-5.3 0.9-1.2 1.7-2.6 3.1-4.8 0.6-1.1 0.9-1.8 1.4-2.3 0.3-0.5 0.6-0.7 1.2-0.7 2.2 0 2 2.1 1.8 4.3l-0.3 3.1c-0.3 3.1 0 4.4-6.3 6.6-5.1 1.8-9.3 2.1-12.2 2.1-24.8 0-32.4-15.9-32.4-27.2 0-13.8 11.5-27.9 33.9-27.9 5.6 0 9.4 0.9 12.7 1.8 2.1 0.6 2 0.7 2.6 4z"/>
				<path id="&lt;Compound Path&gt;" fill-rule="evenodd" class="s0" d="m172.7 93.3c0 15.2-13.6 27.6-30.4 27.6-16.7 0-30.3-12.4-30.3-27.6 0-15.3 13.6-27.7 30.3-27.7 16.8 0 30.4 12.4 30.4 27.7zm-14.7 0c0-13.6-7-24.7-15.6-24.7-8.6 0-15.6 11.1-15.6 24.7 0 13.6 7 24.6 15.6 24.6 8.6 0 15.6-11 15.6-24.6z"/>
			</g>
			<g id="&lt;Group&gt;">
				<path id="&lt;Compound Path&gt;" class="s1" d="m15.5 130.3l-3.5 4h-1.4l3.8-4.1-3.5-3.6h1.3l3.3 3.5v-3.5h1v3.5l3.3-3.5h1.3l-3.5 3.6 3.8 4.1h-1.4l-3.5-4v4h-1z"/>
				<path id="&lt;Compound Path&gt;" class="s1" d="m23.9 126.6v5.6l5.2-6v8.1h-1v-5.5l-5.2 6v-8.2z"/>
				<path id="&lt;Compound Path&gt;" class="s1" d="m31.3 128c0.9-1.6 2.3-1.7 3-1.7 1.5 0 2.6 0.9 2.6 2.3 0 0.6-0.3 1.3-1.3 1.7 0.7 0.2 1.5 0.8 1.5 2 0 1.6-1.5 2.3-3 2.3-1.8 0-2.7-0.8-3.2-1.8l0.9-0.4c0.6 1.2 1.6 1.4 2.3 1.4 1.1 0 1.9-0.6 1.9-1.6 0-1.4-1.4-1.4-1.8-1.4h-0.9v-0.9h0.9c1 0 1.7-0.3 1.7-1.3 0-1.4-1.3-1.4-1.6-1.4-0.6 0-1.5 0-2.2 1.3z"/>
				<path id="&lt;Compound Path&gt;" class="s1" d="m39.4 126.6h1v3.4h4.4v-3.4h1v7.7h-1v-3.5h-4.4v3.5h-1z"/>
				<path id="&lt;Compound Path&gt;" fill-rule="evenodd" class="s1" d="m51 129.7c1 0 2.9 0.2 2.9 2.3 0 2-1.6 2.3-2.9 2.3h-2.6v-7.7h1.1v3.1zm-0.1 3.8c0.6 0 1.9 0 1.9-1.5 0-1.3-1.3-1.4-1.9-1.4h-1.4v2.9z"/>
				<path id="&lt;Compound Path&gt;" class="s1" d="m66.3 133.9c-0.5 0.3-1.3 0.7-2.4 0.7-2.5 0-4.4-1.7-4.4-4.1 0-2.5 1.9-4.2 4.4-4.2 1.3 0 2 0.4 2.4 0.7v1c-1.1-0.7-1.7-0.8-2.3-0.8-2.1 0-3.4 1.5-3.4 3.3 0 2 1.5 3.3 3.2 3.3 1.1 0 1.9-0.5 2.5-1z"/>
				<path id="&lt;Compound Path&gt;" class="s1" d="m76.5 131.2c-0.7 0.1-1.5 0.2-2.1 0.2-1.9 0-2.4-0.7-2.4-2.4v-2.4h1v2.4c0 1.3 0.4 1.6 1.7 1.6 0.5 0 1.2-0.1 1.8-0.2v-3.8h1v7.7h-1z"/>
				<path id="&lt;Compound Path&gt;" class="s1" d="m81.2 126.6v5.6l5.2-6v8.1h-1v-5.5l-5.3 6v-8.2z"/>
				<path id="&lt;Compound Path&gt;" class="s1" d="m95.3 133.9c-0.5 0.3-1.3 0.7-2.4 0.7-2.5 0-4.4-1.7-4.4-4.1 0-2.5 1.9-4.2 4.4-4.2 1.3 0 2 0.4 2.4 0.7v1c-1-0.7-1.7-0.8-2.3-0.8-2.1 0-3.3 1.5-3.3 3.3 0 2 1.4 3.3 3.2 3.3 1 0 1.8-0.5 2.4-1z"/>
				<path id="&lt;Compound Path&gt;" class="s1" d="m98.7 127.5h-2.7v-0.9h6.5v0.9h-2.7v6.8h-1.1z"/>
				<path id="&lt;Compound Path&gt;" fill-rule="evenodd" class="s1" d="m103.5 130.5c0-2.4 1.7-4.2 4.2-4.2 2.5 0 4.2 1.8 4.2 4.2 0 2.4-1.7 4.1-4.2 4.1-2.5 0-4.2-1.7-4.2-4.1zm7.2 0c0-2-1.4-3.3-3-3.3-1.6 0-3 1.3-3 3.3 0 2 1.4 3.3 3 3.3 1.6 0 3-1.3 3-3.3z"/>
				<path id="&lt;Compound Path&gt;" class="s1" d="m114 126.6h4.3v0.9h-3.2v6.8h-1.1z"/>
				<path id="&lt;Compound Path&gt;" fill-rule="evenodd" class="s1" d="m119.3 130.5c0-2.4 1.7-4.2 4.2-4.2 2.4 0 4.1 1.8 4.1 4.2 0 2.4-1.7 4.1-4.1 4.1-2.5 0-4.2-1.7-4.2-4.1zm7.2 0c0-2-1.4-3.3-3-3.3-1.7 0-3.1 1.3-3.1 3.3 0 2 1.4 3.3 3.1 3.3 1.6 0 3-1.3 3-3.3z"/>
				<path id="&lt;Compound Path&gt;" class="s1" d="m139.7 134.3h-1.1v-6.8h-3.3v4.6c0 1.1-0.5 2.2-2.5 2.2v-0.8c1.3 0 1.4-0.9 1.4-2.1v-4.8h5.5z"/>
				<path id="&lt;Compound Path&gt;" class="s1" d="m143.3 126.6v5.6l5.3-6v8.1h-1.1v-5.5l-5.2 6v-8.2z"/>
				<path id="&lt;Compound Path&gt;" class="s1" d="m157.5 133.9c-0.5 0.3-1.3 0.7-2.4 0.7-2.5 0-4.4-1.7-4.4-4.1 0-2.5 1.8-4.2 4.4-4.2 1.2 0 1.9 0.4 2.4 0.7v1c-1.1-0.7-1.7-0.8-2.4-0.8-2.1 0-3.3 1.5-3.3 3.3 0 2 1.4 3.3 3.2 3.3 1.1 0 1.9-0.5 2.5-1z"/>
				<path id="&lt;Compound Path&gt;" class="s1" d="m160.9 127.5h-2.8v-0.9h6.5v0.9h-2.7v6.8h-1z"/>
				<path id="&lt;Compound Path&gt;" fill-rule="evenodd" class="s1" d="m172.5 126.6h1v7.7h-1v-1.3c-0.6 1.1-1.7 1.6-2.8 1.6-2.5 0-4-1.8-4-4.1 0-2.4 1.6-4.2 4-4.2 0.8 0 2 0.3 2.8 1.7zm0 3.8c0-1.8-1.1-3.3-2.8-3.3-1.7 0-2.9 1.4-2.9 3.3 0 1.8 1.1 3.3 2.9 3.3 1.6 0 2.8-1.2 2.8-3.3z"/>
			</g>
			<path id="&lt;Path&gt;" class="s1" d="m254.6 56.8c-12.1-3.5-21.7 15-26.1 23.2-4.1 7.4-7.5 15.2-10.8 23-2.2 5.2-5.7 11.4-6.4 17.1-0.3 2.4 3.2 3.8 4.6 1.7 2.4-3.9 3.4-9.3 4.9-13.6q4-10.8 8.8-21.4c3.2-6.9 6.8-13.3 10.9-19.7 2.6-4.1 8.1-10.7 13.7-9.2 0.7 0.2 1.2-0.9 0.4-1.1z"/>
			<path id="&lt;Compound Path&gt;" class="s1" d="m210.1 70.5q0.6-0.1 1.1-0.1 4.8-0.1 4.9 4.3 0 2.1-1.1 4.5-2.7 6.2-5.4 9.1-2.3 2.4-5 4.5-2.6 2-3.7 2.4-1.2 0.3-2.1 0.4-2.4 0-2.5-2.5 0-1.5 1.1-3.3 1-1.1 3.1-3.8 0.5-0.6 2.2-1.9 2.1-1.8 2.9-1.8 0.5 0 0.5 0.6 0 0.2 0 0.3-0.1 0.7-2.3 3.5-2.2 2.8-2.2 3.6 0 0.4 0.5 0.4 2.1 0.2 4.1-3 1.8-3 1.8-5.9-0.1-3.1-2.6-3.1-0.9 0-2 0.4c-3.1 1.2-6.1 3.2-9.1 6.1q-4.2 4.1-6.3 8.5-0.9 1.9-1.7 5.2-0.9 3.7-0.8 6 0 1.1 0.2 1.7 0.7 2.1 2.5 3.7 1.9 1.6 4.1 1.6 0.4 0 0.8-0.1 5.7-1 15.6-8.2 0.6-0.4 3.8-3.3 2.1-2 3.1-2 0.7 0 1.3 0.8 0 0.1 0 0.3 0 0.9-1.8 2.7-1.2 1.1-2.3 2.1-2 2.2-5.4 4.9-2.9 2.3-5.7 4.6-2.9 2.4-6.8 4.2-4.3 1.9-7.6 2-5.1 0-7.8-2.7-2.4-2.5-2.5-6.7 0-1.8 0.4-3.7 1.1-4.4 4-9.9 2.9-5.4 6.3-9.2 5.3-6 6.3-7.1 3.7-3.8 7.6-6.4 1.4-0.9 4-2.1 3.1-1.4 4.5-1.6z"/>
			<path id="&lt;Compound Path&gt;" class="s1" d="m306 86.4q0.7-0.2 1.2-0.2 0.9-0.1 1 0.9 0 1.2-2.3 5.5-1.7 3.9-5.2 11.6-0.9 1.7-0.9 2.1 0 0.1 0.1 0.2 0.4-0.1 2.1-1.9 1-1.1 2-2.3 5.5-5.6 13.4-12.7c1.3-1.1 2.4-1.7 3.3-1.7q1.1 0 1.1 1.1 0 1.7-3.5 7.9-0.9 1.4-2.9 6.6-2.6 6.8-2.6 9.5 0 1.7 1.1 1.7 1.9 0 5.5-4.4 2.3-3 4.7-6.1 1.2-1.5 1.5-1.5 0.6 0 0.6 0.7 0 1.1-3.6 6.1-7.4 10.3-12.1 10.4-1.6 0-3.1-1.1-1.6-1.3-1.7-4.1 0-4.3 3.7-12.6 0.7-1.4 0.4-1.4-0.1 0-0.2 0.1-4 2.6-7.9 8.3-0.2 0.3-6 9.5-0.8 1.2-2.5 1.2-1.3 0.1-2.3-0.6-1-0.6-1-1.7 0-0.3 0-0.6 1-3.1 4.6-11.7 1.2-2.6 3.3-7.3 1.3-3.2 1.2-4.9-0.2-1.5 2.6-4 2.7-2.6 4.4-2.6z"/>
			<path id="&lt;Compound Path&gt;" fill-rule="evenodd" class="s1" d="m51.7 97.4c0.1 2.1 0.1 3.4-0.6 4.2q-0.6 0.6-1.7 0.6c-2.1 0-2.6-1.3-3.4-3.4q-0.3-0.7-0.7-1.6c-0.9-2.1-1.9-3.2-6.8-3.2h-1.5c-3 0-3 0.6-3 2.1v11.1c0 4 0.5 8 6.3 8h1.4c5.4 0 9.4-2.5 12.2-7.6l0.1-0.3c0.9-1.7 1.7-3.2 3.5-3.2 1.6 0 2.6 1 2.6 2.5 0 1.9-0.2 2.5-0.4 3.3-0.2 0.9-0.6 2.2-0.9 6.3-0.3 4.1-0.9 4.5-5.8 4.4l-9.7-0.3c-13.1-0.4-18.5-0.2-22.9 0-2.2 0.1-4.1 0.2-6.5 0.2q-3.2 0-3.3-2.5c0-2 1.9-2.2 2.8-2.2 0 0 0.1 0 0.2 0 3.4-0.2 4.7-1.9 4.7-6.6v-31.9c0-4.6-1.3-6.3-4.8-6.5l-0.1-0.1c-0.9 0-2.8-0.2-2.8-2.2q0.1-2.5 3.3-2.5c2.4 0 3.7 0.1 5.3 0.2 1.3 0 2.8 0.1 5.4 0.1 0 0 11 0.2 11 0.2 3.6 0.1 12.6-0.2 15.1-0.3l0.8-0.1c1.9-0.1 3.5-0.2 4.4 0.1 1.1 0.4 1.1 1.3 1.1 3.1v0.6 4.2c0 4.2-0.6 5.6-2.4 5.6-1.6 0-2.1-0.8-3-2.2 0 0-0.1-0.2-0.1-0.2-2.3-3.5-3.9-6-12.5-6q-3.7 0-4.6 0.8c-0.3 0.4-0.4 0.9-0.4 1.9v12.8c0 2.7 0.5 2.7 1.5 2.7h3.7c3.2 0 5.1 0 6.9-4.1q0.3-0.7 0.5-1.4c0.5-1.3 1-2.7 2.8-2.7 1.6 0 2.6 1 2.6 2.7 0 0-0.3 13.4-0.3 13.4zm0 0q0 0 0 0 0 0 0 0zm-1.3-13.4c0-1.1-0.7-1.1-1-1.1-0.6 0-0.8 0.3-1.3 1.6-0.2 0.5-0.3 1-0.6 1.5-2.1 5-5 5-8.3 5h-3.7c-2.5 0-3-1.6-3-4.2v-12.8c0-1.1 0-2.1 0.8-3 0.9-0.9 2.6-1.3 5.7-1.3 8.9 0 11.1 2.6 13.8 6.7l0.1 0.2c0.9 1.5 1 1.5 1.7 1.5 0.3 0 0.9 0 0.9-4v-4.2-0.6c0-0.7 0-1.4-0.1-1.6-0.7-0.2-2.6-0.1-3.9 0 0 0-0.7 0-0.7 0-2.5 0.2-11.6 0.4-15.2 0.3l-11-0.1c-2.6 0-4.1-0.1-5.5-0.2-1.5-0.1-2.8-0.1-5.2-0.1-1.4 0-1.7 0.3-1.7 0.9 0 0.4 0.1 0.6 1.3 0.7 0 0 0.2 0 0.2 0 5.4 0.3 6.1 4.3 6.1 8.1v31.9c0 3.8-0.7 7.8-6.1 8.1h-0.2c-1.2 0.1-1.3 0.3-1.3 0.7 0 0.6 0.3 0.9 1.7 0.9 2.4 0 4.2-0.1 6.4-0.2 4.4-0.2 9.9-0.4 23 0 0 0 9.7 0.3 9.7 0.3 4 0.1 4 0.1 4.3-2.9 0.3-4.3 0.6-5.6 0.9-6.6 0.2-0.7 0.4-1.2 0.4-2.9 0-0.5-0.2-0.9-1.1-0.9-0.8 0-1.3 0.8-2.1 2.4 0 0-0.1 0.2-0.1 0.2-3.1 5.6-7.6 8.5-13.6 8.5h-1.4c-7.8 0-7.8-6.8-7.8-9.6v-11.1c0-2.4 0.7-3.6 4.5-3.6h1.5c5.5 0 7.1 1.3 8.3 4.1q0.3 0.9 0.6 1.6c0.9 2.2 1 2.4 2 2.4q0.4 0 0.5-0.1c0.4-0.4 0.3-2.3 0.2-2.9 0-0.1 0.3-13.7 0.3-13.6zm-36.7-14.8q0 0 0 0 0 0 0 0zm41.7-1.5q0 0 0 0 0 0 0 0 0 0 0 0 0 0 0 0zm0 0q0 0 0 0 0 0 0 0z"/>
			<path id="&lt;Compound Path&gt;" fill-rule="evenodd" class="s1" d="m110.5 74.7v0.3c0.3 1.2 0.6 3-0.3 4q-0.6 0.8-1.8 0.8c-1.7 0-2.7-1.3-3.8-2.8q-0.4-0.6-1-1.3l-0.3-0.4c-3.3-3.9-4.9-5.8-9.8-5.8-12 0-18.3 11.9-18.3 23.6 0 13.9 7.4 23.9 17.6 23.9 1.8 0 6.6-0.5 10.2-5 0.7-0.9 1.4-2 2.3-3.5 0 0 0.7-1.2 0.7-1.2l0.4-0.7c0.4-0.7 0.7-1.3 1.1-1.7 0.5-0.7 1-0.9 1.8-0.9q1.3 0 2 0.7c0.9 1 0.7 2.6 0.6 4.4l-0.3 3.1-0.1 0.5c-0.3 3.1-0.7 4.6-6.7 6.8-4.2 1.4-8.2 2.1-12.5 2.1-26.2 0-33.2-17.6-33.2-28 0-14.3 11.9-28.7 34.7-28.7 5.5 0 9.5 0.9 12.9 1.8 2.4 0.7 2.6 1.2 3.1 4.2l0.1 0.5c0 0 0.6 3.4 0.6 3.3zm-4.5 32.6q0 0 0 0zm2.3-35.7v-0.4c-0.5-2.5-0.5-2.5-2-3-3.1-0.8-6.9-1.7-12.5-1.7-21.7 0-33.1 13.6-33.1 27.1 0 12.2 8.3 26.5 31.6 26.5 4.1 0 8-0.7 11.9-2.1 5.4-1.9 5.5-2.9 5.7-5.4l0.1-0.6c0 0 0.3-3.1 0.3-3.1 0.1-1.3 0.3-2.7-0.1-3.1-0.1-0.1-0.3-0.3-0.9-0.3-0.3 0-0.4 0.1-0.6 0.4-0.3 0.3-0.6 0.8-0.9 1.5 0 0-0.4 0.7-0.4 0.7l-0.8 1.2c-0.9 1.6-1.6 2.7-2.4 3.6-2.8 3.6-7 5.7-11.4 5.7-11.1 0-19.2-10.7-19.2-25.5 0-12.5 6.9-25.2 19.9-25.2 5.6 0 7.6 2.4 11 6.4 0 0 0.3 0.4 0.3 0.4q0.6 0.8 1.1 1.4c1 1.4 1.6 2.2 2.5 2.2 0.5 0 0.6-0.2 0.6-0.2 0.4-0.5 0.2-2 0-2.8v-0.3c0 0-0.7-3.4-0.7-3.4z"/>
			<path id="&lt;Compound Path&gt;" fill-rule="evenodd" class="s1" d="m173.5 93.3c0 15.6-14 28.3-31.2 28.3-17.1 0-31.1-12.7-31.1-28.3 0-15.7 14-28.4 31.1-28.4 17.2 0 31.2 12.7 31.2 28.4zm-1.6 0c0-14.8-13.3-26.9-29.6-26.9-16.3 0-29.5 12.1-29.5 26.9 0 14.8 13.2 26.8 29.5 26.8 16.3 0 29.6-12 29.6-26.8zm-13.1 0c0 14-7.4 25.4-16.4 25.4-9 0-16.4-11.4-16.4-25.4 0-14.1 7.4-25.5 16.4-25.5 9 0 16.4 11.4 16.4 25.5zm-1.6 0c0-13.2-6.6-23.9-14.8-23.9-8.2 0-14.8 10.7-14.8 23.9 0 13.1 6.6 23.8 14.8 23.8 8.2 0 14.8-10.7 14.8-23.8z"/>
			<path id="&lt;Compound Path&gt;" class="s1" d="m230 64.7c-4.4-15.8-20.8-22.7-34.7-28-10.2-3.9-21.6-7.9-27-18.1-0.2-0.3 0.3-0.5 0.4-0.3 8.7 11.3 23.7 14 36.2 18.9 9.8 3.8 19.5 10.2 24.9 19.4 0-2-0.1-4-0.6-6-1-4.7-3.1-9-6.3-12.6-5.7-6.6-13-11.5-21.1-14.4-8.7-3.1-17.8-4.5-26.8-6.6-5.2-1.2-10.6-2.1-14.7-5.3 2.4 11.6-1.5 25 6.5 35 5.5 6.7 14.9 10 23.1 12.1 8.4 2.2 17 3.6 25.7 4.3 2.8 0.2 9.4 1.1 11.2 1.6 1.8 0.6 2.3 3-0.4 3.8-0.4 0.1-2.4 0.7-3.9 0.7-3.4 0-6.7-0.3-10-0.6-9.3-1.1-18.6-2.8-27.4-6-8.2-3.1-16-7.4-21.1-14.8-8.3-11.9-1.9-27-6.9-39.6-0.5-1.2 1-2.3 1.8-1.2 3.3 4.7 8.3 5.7 13.6 7 5 1.2 9.9 2.1 14.9 3.1 8.5 1.8 17 4 24.5 8.4 6.6 3.9 13 9.1 16.8 15.8 4.2 7.4 4 15.1 4.3 23.3 0 1.8-2.6 1.6-3 0.1z"/>
			<g id="&lt;Group&gt;">
				<path id="&lt;Compound Path&gt;" fill-rule="evenodd" class="s1" d="m292.4 102.7q-1.5 2.9-3.6 5.7-2 2.9-4.1 5.1-2.2 2.2-4.1 3.6-2 1.4-3.5 1.7-1.5 0.3-2.6-0.5-1-0.8-1.4-2.7-0.5-2.5 0.3-8.3l-9.9 11.7q-0.7 1-1.7 1.2-1.4 0.3-3.5-1-2.1-1.2-3.8-3.3-1.7-2.2-2.2-4.4-0.1-0.4-0.1-1.1-0.1-0.7-0.1-1 0.4-3.9 3.6-8.1 3.2-4.1 7.8-7.5 4.5-3.3 8.7-5.2 2.1-1 4-1.4 2.5-0.5 4.2 0.4 1.8 0.9 2 2.1 0.1 0.6-0.4 1.4-0.6 0.7-1.5 0.9h-0.1q1.4 0.4 2.2 1.2 0.9 0.8 1.1 1.5 0.1 0.7-0.3 1.6-0.3 0.9-1.4 2.9-1 2-1.5 2.9-0.5 0.7-1 2.4-0.4 1.7-0.2 2.8 0.2 1.1 1.3 1.6 0.1 0.1 0.3 0.1 0.1 0.1 0.2 0.1 1.6-0.3 4.9-3.6 3.3-3.2 4.8-5.5zm-16.8-7.3q-8 4.1-12 8.7-2.7 2.1-4.2 4.5-1.5 2.5-1.2 4.2 0 0.1 0.1 0.3 0.2 0.2 0.2 0.3 0.1 0.4 0.5 0.6 0.3 0.2 0.7 0.1 2.2-0.4 6.4-5.7 4.1-5.4 9.5-13z"/>
			</g>
			<path id="&lt;Compound Path&gt;" fill-rule="evenodd" class="s1" d="m233.4 107.6c-0.2 0.4-0.4 1.1-0.4 2.5q0 0.1 0 0.2c0 1.5 0.3 2.5 0.9 2.9q0.7 0.5 1.8 0.4c1.4 0 3.9-1.3 7.5-4 1.1-0.9 3.2-3.1 6-6.7q0.8-1 1.7-1.1c0.3 0 1.1 0.1 1.1 1.2q0 0.6-0.4 1.4c-1.6 3.3-4.4 6.7-8.4 10.1-4.4 3.8-8.5 5.8-12 5.9q-3 0-4.9-1.8-1.9-1.9-1.9-4.8 0 0 0-0.1 0-1.1 0.3-2.1c0.3-1.6 1.5-4 3.6-7.4-0.1-0.3-0.5-1.4-0.5-1.4 0 0 0-0.2 0-0.2q-0.6-1.7-0.7-3 0-1.4 0.7-2.4 0.4-0.6 1.6-0.7 2.6 0 3.4 1.7c0 0 0.1 0.2 0.2 0.4 3.1-4.3 7.1-7.9 11.9-10.5q2.3-1.4 4.6-1.4 2.4-0.1 3.6 1.1 1.1 1 1.1 2.9 0 0 0 0.1 0 1.4-0.9 3c-1.8 3.3-5.3 6.8-10.3 10.3q-1.9 1.3-4.7 2.4-2.9 1.1-4.9 1.1zm2.8-4.3q2.4-0.1 5.5-2.5 2.9-2.3 3.4-4 0.4-1.2 0.4-1.6c0-0.3-0.2-0.7-0.9-1-0.1 0-0.8-0.1-0.8-0.1-1.6 0-3.6 1.4-6 4.2-2.3 2.7-2.9 4-3.1 4.6 0.4 0.2 0.9 0.4 1.5 0.4z"/>
		</g>
	</g>
</svg>